<?xml version="1.0" standalone="no"?>
<!DOCTYPE svg PUBLIC "-//W3C//DTD SVG 20010904//EN"
 "http://www.w3.org/TR/2001/REC-SVG-20010904/DTD/svg10.dtd">
<svg version="1.0" xmlns="http://www.w3.org/2000/svg"
 width="320.000000pt" height="320.000000pt" viewBox="0 0 320.000000 320.000000"
 preserveAspectRatio="xMidYMid meet">
<metadata>
Created by potrace 1.14, written by Peter Selinger 2001-2017
</metadata>
<g transform="translate(0.000000,320.000000) scale(0.100000,-0.100000)"
fill="#000000" stroke="none">
<path d="M0 1600 l0 -1600 1600 0 1600 0 0 1600 0 1600 -1600 0 -1600 0 0
-1600z m1855 1345 c166 -25 280 -60 420 -130 223 -110 305 -186 290 -269 -6
-27 -1 -39 30 -76 83 -100 146 -232 181 -385 28 -119 26 -371 -4 -522 -12 -62
-31 -141 -42 -177 l-20 -64 34 -34 c52 -52 58 -89 54 -357 l-3 -238 -28 -42
c-15 -23 -47 -56 -71 -73 l-43 -30 -6 -79 c-4 -43 -13 -92 -21 -107 -35 -68
-135 -122 -226 -122 -98 0 -209 67 -230 138 -8 25 -10 202 -8 543 l3 506 29
37 c67 88 226 118 333 63 61 -32 98 -76 112 -135 5 -24 11 -46 14 -48 7 -7 55
185 73 291 21 132 14 368 -14 470 -29 105 -66 188 -116 263 -70 103 -64 98
-131 98 -59 -1 -62 0 -129 56 -121 100 -298 180 -475 215 -103 20 -335 22
-431 4 -203 -38 -360 -110 -520 -239 -53 -43 -56 -44 -107 -38 l-52 6 -45 -63
c-136 -191 -190 -413 -166 -678 15 -159 88 -460 90 -369 1 40 34 103 73 137
46 41 97 57 177 58 86 0 169 -39 208 -98 26 -39 27 -46 30 -198 l3 -157 39 -7
c21 -4 46 -13 57 -20 10 -8 21 -15 26 -15 4 0 7 126 7 281 0 302 4 332 53 357
20 11 177 58 535 162 126 36 148 40 178 30 64 -22 65 -27 62 -438 l-3 -369
-28 -36 c-37 -49 -81 -71 -143 -71 -139 -1 -219 155 -141 273 48 72 156 97
230 53 l37 -21 0 184 c0 141 -3 185 -12 185 -7 0 -169 -46 -360 -102 l-348
-102 0 -255 c-1 -141 -5 -276 -9 -300 -15 -75 -69 -129 -139 -138 l-41 -5 -3
-183 -3 -183 -30 -43 c-46 -65 -111 -94 -210 -94 -69 1 -87 4 -134 30 -79 44
-104 86 -109 191 -4 79 -6 86 -31 99 -38 20 -88 75 -105 117 -13 30 -16 83
-16 275 0 259 6 289 62 341 l26 23 -19 60 c-50 160 -63 256 -63 459 0 179 2
203 26 291 32 117 85 226 153 317 45 60 51 73 47 105 -6 56 14 92 81 143 172
129 377 213 612 249 112 18 331 18 450 0z m221 -394 c5 -6 7 -83 4 -191 l-5
-182 -34 -30 c-34 -30 -51 -32 -125 -16 -55 13 -76 112 -36 169 23 31 80 52
117 43 23 -6 23 -6 23 93 0 96 8 123 35 123 6 0 15 -4 21 -9z m-688 -137 c22
-15 22 -19 22 -238 0 -222 0 -223 -24 -249 -69 -75 -196 -26 -196 75 0 32 7
47 34 74 29 29 41 34 79 34 l44 0 6 73 c3 39 4 73 3 74 0 0 -82 -22 -181 -51
l-180 -52 -5 -161 c-5 -161 -5 -162 -33 -191 -70 -73 -187 -29 -187 70 0 72
62 125 129 112 l31 -6 0 151 c0 179 0 179 112 211 40 12 120 36 178 55 120 39
137 41 168 19z m1106 -310 c14 -5 16 -31 16 -186 l0 -180 -35 -35 c-33 -33
-39 -35 -82 -30 -37 4 -54 12 -76 37 -26 29 -29 39 -24 78 7 65 42 97 107 97
l50 0 0 93 c0 51 5 102 10 113 12 21 12 21 34 13z"/>
<path d="M1498 2899 c-242 -20 -491 -113 -674 -251 -58 -43 -71 -71 -48 -105
24 -38 57 -29 152 44 143 109 328 185 521 214 132 19 374 7 494 -25 167 -43
308 -112 428 -208 64 -52 96 -59 124 -28 29 32 12 63 -62 117 -252 184 -591
272 -935 242z"/>
<path d="M1635 1746 c-351 -104 -342 -99 -328 -193 l8 -50 335 98 c184 54 345
101 358 104 19 5 22 12 22 58 0 61 -12 77 -54 76 -17 0 -170 -42 -341 -93z"/>
<path d="M795 1485 c-22 -8 -55 -30 -72 -49 l-33 -36 0 -497 c0 -471 1 -500
19 -529 60 -98 272 -98 332 0 30 50 25 89 -21 147 -48 61 -103 174 -120 247
-19 84 -15 216 10 297 28 89 46 124 105 204 43 58 47 68 42 105 -13 96 -146
152 -262 111z"/>
<path d="M2321 1488 c-45 -15 -101 -72 -101 -103 0 -13 -2 -30 -5 -38 -3 -7
12 -36 35 -63 156 -187 183 -451 69 -662 -21 -41 -54 -93 -72 -115 -29 -37
-33 -47 -27 -84 7 -51 31 -79 85 -104 81 -38 198 -17 255 45 l25 28 3 497 3
497 -23 34 c-13 19 -38 43 -56 53 -40 23 -142 31 -191 15z"/>
<path d="M1836 1249 c-31 -24 -56 -69 -56 -99 0 -36 31 -90 61 -105 15 -8 46
-15 69 -15 93 0 146 88 105 174 -30 64 -125 88 -179 45z"/>
<path d="M561 1234 c-20 -26 -21 -37 -21 -280 l0 -254 36 -40 c20 -22 40 -40
45 -40 5 0 9 120 9 270 0 227 -3 276 -17 312 -23 60 -28 63 -52 32z"/>
<path d="M2670 1214 c-18 -42 -20 -70 -20 -320 0 -151 4 -274 8 -274 14 0 60
54 71 83 7 17 11 121 11 260 0 214 -2 235 -20 265 -11 17 -22 32 -25 32 -3 0
-15 -21 -25 -46z"/>
<path d="M1023 1178 c-104 -173 -104 -384 -1 -558 l33 -55 3 92 3 93 -45 42
c-55 54 -72 106 -55 173 11 44 58 107 87 116 9 3 12 24 10 77 l-3 74 -32 -54z"/>
<path d="M2211 903 c0 -183 4 -333 7 -333 14 0 64 94 87 165 52 153 19 365
-74 475 l-21 25 1 -332z"/>
<path d="M1081 1033 c-68 -34 -91 -118 -49 -179 71 -103 218 -53 218 74 0 47
-29 88 -76 108 -42 18 -51 17 -93 -3z"/>
<path d="M1930 2261 c-23 -45 -3 -84 39 -76 47 9 68 54 39 83 -19 19 -66 15
-78 -7z"/>
<path d="M1170 2316 c-172 -50 -175 -52 -178 -80 -3 -24 -1 -28 15 -22 10 4
89 29 176 56 86 27 162 52 167 55 12 7 13 32 3 38 -5 3 -87 -18 -183 -47z"/>
<path d="M1266 2034 c-33 -32 -14 -84 30 -84 31 0 54 26 54 60 0 40 -53 56
-84 24z"/>
<path d="M852 1923 c-7 -3 -18 -16 -23 -30 -21 -55 46 -97 84 -55 41 45 -4
108 -61 85z"/>
<path d="M2362 1818 c-7 -7 -12 -24 -12 -38 0 -14 5 -31 12 -38 7 -7 24 -12
38 -12 14 0 31 5 38 12 7 7 12 24 12 38 0 14 -5 31 -12 38 -7 7 -24 12 -38 12
-14 0 -31 -5 -38 -12z"/>
</g>
</svg>
